<svg width="6" height="10" viewBox="0 0 6 10" fill="none" xmlns="http://www.w3.org/2000/svg">
<path d="M5.66665 5.00003C5.66712 5.09857 5.6479 5.19621 5.61012 5.28722C5.57234 5.37824 5.51676 5.46079 5.44665 5.53003L1.94665 9.00003C1.80569 9.09142 1.63814 9.13284 1.47083 9.11766C1.30353 9.10247 1.14617 9.03155 1.02397 8.91627C0.901775 8.80099 0.82182 8.64803 0.79692 8.48189C0.772021 8.31575 0.80362 8.14607 0.886652 8.00003L3.88665 5.00003L0.886652 2.00003C0.80362 1.85399 0.772021 1.68431 0.79692 1.51817C0.82182 1.35204 0.901775 1.19907 1.02397 1.08379C1.14617 0.968512 1.30353 0.897594 1.47083 0.882407C1.63814 0.86722 1.80569 0.908641 1.94665 1.00003L5.44665 4.50003C5.58107 4.63254 5.65977 4.81141 5.66665 5.00003Z" fill="#FFC701"/>
</svg>
