<svg width="10" height="6" viewBox="0 0 10 6" fill="none" xmlns="http://www.w3.org/2000/svg">
<path d="M5 5.49999C4.90146 5.50046 4.80382 5.48124 4.71281 5.44346C4.62179 5.40568 4.53924 5.35011 4.47 5.27999L0.999999 1.77999C0.908609 1.63904 0.867188 1.47148 0.882375 1.30417C0.897563 1.13687 0.968479 0.979511 1.08376 0.857315C1.19904 0.735119 1.352 0.655163 1.51814 0.630264C1.68428 0.605364 1.85396 0.636963 2 0.719995L5 3.72L8 0.719995C8.14604 0.636963 8.31572 0.605364 8.48186 0.630264C8.64799 0.655163 8.80096 0.735119 8.91624 0.857315C9.03152 0.979511 9.10244 1.13687 9.11762 1.30417C9.13281 1.47148 9.09139 1.63904 9 1.77999L5.5 5.27999C5.36749 5.41441 5.18862 5.49311 5 5.49999Z" fill="#FFFCF2"/>
</svg>
