<svg width="22" height="18" viewBox="0 0 22 18" fill="none" xmlns="http://www.w3.org/2000/svg">
<path d="M21.5 0.491943L20.54 0.773193L3.359 5.99994H0.5V11.9999H3.35975L4.83575 12.4454L4.81325 12.5152V12.5392C4.33175 14.1232 5.2235 15.8842 6.87575 16.3822C6.88325 16.3844 6.89225 16.3799 6.89825 16.3822C8.4905 16.8659 10.253 15.9847 10.7428 14.3197L10.7653 14.2492L20.54 17.2267L21.5 17.5072V0.491943ZM20 2.50794V15.4919L3.71 10.5224L3.61775 10.4999H2V7.49994H3.617L3.71075 7.47744L20 2.50794ZM6.26525 12.8902L9.33575 13.8052L9.31325 13.8749V13.8974C9.05525 14.7749 8.12375 15.2039 7.32125 14.9527C6.44375 14.6954 5.99225 13.7872 6.24275 12.9839V12.9614L6.26525 12.8902Z" fill="#8D8885"/>
</svg>
