<svg width="687" height="558" viewBox="0 0 687 558" fill="none" xmlns="http://www.w3.org/2000/svg">
<g id="No Results">
<g id="circle">
<path id="Stroke 1" d="M24.1875 255.935V261.727" stroke="#D2D8DF" stroke-width="1.87997" stroke-linecap="round"/>
<g id="Group 8">
<path id="Stroke 2" d="M11.1768 259.072L15.9101 263.945" stroke="#D2D8DF" stroke-width="1.87997" stroke-linecap="round"/>
<path id="Stroke 4" d="M5.64111 272.044H12.3339" stroke="#D2D8DF" stroke-width="1.87997" stroke-linecap="round"/>
<path id="Stroke 6" d="M10.6339 285.244L15.3671 280.372" stroke="#D2D8DF" stroke-width="1.87997" stroke-linecap="round"/>
</g>
<path id="Stroke 9" d="M24.1875 286.831V281.039" stroke="#D2D8DF" stroke-width="1.87997" stroke-linecap="round"/>
<path id="Stroke 10" d="M33.842 282.97L29.9804 279.108" stroke="#D2D8DF" stroke-width="1.87997" stroke-linecap="round"/>
<path id="Stroke 11" d="M41.5651 273.316H35.7727" stroke="#D2D8DF" stroke-width="1.87997" stroke-linecap="round"/>
<path id="Stroke 12" d="M37.7035 259.796L33.8419 263.658" stroke="#D2D8DF" stroke-width="1.87997" stroke-linecap="round"/>
<path id="Stroke 13" d="M335.048 3V6.86162" stroke="#D2D8DF" stroke-width="1.87997" stroke-linecap="round"/>
<path id="Stroke 15" d="M323.464 14.5847H327.325" stroke="#D2D8DF" stroke-width="1.87997" stroke-linecap="round"/>
<path id="Stroke 16" d="M335.048 26.169V22.3074" stroke="#D2D8DF" stroke-width="1.87997" stroke-linecap="round"/>
<path id="Stroke 17" d="M344.703 14.5847H340.841" stroke="#D2D8DF" stroke-width="1.87997" stroke-linecap="round"/>
<path id="Stroke 18" d="M111.074 165.189V170.981" stroke="#D2D8DF" stroke-width="1.87997" stroke-linecap="round"/>
<path id="Stroke 19" d="M93.6973 182.566H99.4897" stroke="#D2D8DF" stroke-width="1.87997" stroke-linecap="round"/>
<path id="Stroke 20" d="M111.074 198.012V192.22" stroke="#D2D8DF" stroke-width="1.87997" stroke-linecap="round"/>
<path id="Stroke 21" d="M126.521 182.566H120.728" stroke="#D2D8DF" stroke-width="1.87997" stroke-linecap="round"/>
<g id="Group 42">
<path id="Stroke 22" d="M526.689 375.724C531.304 375.724 535.046 379.468 535.046 384.083C535.046 388.7 531.304 392.442 526.689 392.442C522.075 392.442 518.333 388.7 518.333 384.083" stroke="#D2D8DF" stroke-width="1.87997" stroke-linecap="round"/>
<path id="Fill 26" fill-rule="evenodd" clip-rule="evenodd" d="M564.933 299.889C569.894 298.341 577.5 292.273 579.261 285.744C580.857 291.516 587.55 298.341 593.589 298.858C586.791 301.265 580.292 308.415 579.261 314.032C578.559 308.307 569.57 300.724 564.933 299.889Z" fill="#EBECEE"/>
<path id="Fill 28" fill-rule="evenodd" clip-rule="evenodd" d="M55.6051 373.146C58.0868 372.372 61.8881 369.339 62.7683 366.075C63.5666 368.959 66.9122 372.372 69.9315 372.631C66.5335 373.833 63.2847 377.409 62.7683 380.218C62.4175 377.355 57.9229 373.563 55.6051 373.146Z" fill="#EBECEE"/>
<path id="Fill 30" fill-rule="evenodd" clip-rule="evenodd" d="M101.66 104.554C101.66 108.135 98.7584 111.035 95.1801 111.035C91.6001 111.035 88.7004 108.135 88.7004 104.554C88.7004 100.975 91.6001 98.0728 95.1801 98.0728C98.7584 98.0728 101.66 100.975 101.66 104.554Z" fill="#D1D8DF"/>
<path id="Fill 32" fill-rule="evenodd" clip-rule="evenodd" d="M534.345 121.96C534.345 127.943 529.495 132.793 523.515 132.793C517.532 132.793 512.683 127.943 512.683 121.96C512.683 115.977 517.532 111.127 523.515 111.127C529.495 111.127 534.345 115.977 534.345 121.96Z" fill="#EBECEE"/>
<path id="Fill 34" fill-rule="evenodd" clip-rule="evenodd" d="M684.359 92.6071C684.359 97.3538 680.514 101.2 675.77 101.2C671.024 101.2 667.179 97.3538 667.179 92.6071C667.179 87.8604 671.024 84.0139 675.77 84.0139C680.514 84.0139 684.359 87.8604 684.359 92.6071Z" fill="#EBECEE"/>
<path id="Stroke 36" fill-rule="evenodd" clip-rule="evenodd" d="M222.759 493.944C222.759 496.936 220.335 499.361 217.343 499.361C214.353 499.361 211.929 496.936 211.929 493.944C211.929 490.952 214.353 488.527 217.343 488.527C220.335 488.527 222.759 490.952 222.759 493.944Z" stroke="#D2D8DF" stroke-width="1.87997" stroke-linecap="round"/>
<path id="Stroke 38" fill-rule="evenodd" clip-rule="evenodd" d="M219.538 62.9167C219.538 66.4976 216.636 69.398 213.058 69.398C209.48 69.398 206.578 66.4976 206.578 62.9167C206.578 59.3374 209.48 56.4353 213.058 56.4353C216.636 56.4353 219.538 59.3374 219.538 62.9167Z" stroke="#D2D8DF" stroke-width="1.87997" stroke-linecap="round"/>
<path id="Stroke 40" fill-rule="evenodd" clip-rule="evenodd" d="M384.82 553.933C380.68 555.509 376.046 553.428 374.47 549.288C372.895 545.147 374.974 540.51 379.116 538.936C383.255 537.36 387.889 539.439 389.464 543.581C391.041 547.723 388.961 552.358 384.82 553.933Z" stroke="#D2D8DF" stroke-width="1.87997" stroke-linecap="round"/>
</g>
</g>
<g id="search">
<g id="documents">
<path id="Fill 1" fill-rule="evenodd" clip-rule="evenodd" d="M382.352 400.75H224.016C212.872 400.75 203.75 391.6 203.75 380.419V154.624C203.75 143.442 212.872 134.298 224.016 134.298H382.352C393.501 134.298 402.623 143.442 402.623 154.624V380.419C402.623 391.6 393.501 400.75 382.352 400.75Z" fill="#8D8885"/>
<path id="Fill 3" fill-rule="evenodd" clip-rule="evenodd" d="M368.837 410.404H210.501C199.357 410.404 190.234 401.255 190.234 390.073V164.278C190.234 153.096 199.357 143.952 210.501 143.952H368.837C379.986 143.952 389.108 153.096 389.108 164.278V390.073C389.108 401.255 379.986 410.404 368.837 410.404Z" fill="#FFFCF2"/>
<path id="Fill 5" fill-rule="evenodd" clip-rule="evenodd" d="M355.69 418.024H197.027C185.86 418.024 176.718 408.912 176.718 397.777V172.917C176.718 161.782 185.86 152.675 197.027 152.675H355.69C366.862 152.675 376.003 161.782 376.003 172.917V397.777C376.003 408.912 366.862 418.024 355.69 418.024Z" fill="#C2BDB9"/>
<path id="Fill 8" fill-rule="evenodd" clip-rule="evenodd" d="M355.69 418.024H197.027C185.86 418.024 176.718 408.912 176.718 397.777V172.917C176.718 161.782 185.86 152.675 197.027 152.675H355.69C366.862 152.675 376.003 161.782 376.003 172.917V397.777C376.003 408.912 366.862 418.024 355.69 418.024Z" fill="#C2BDB9"/>
<path id="Fill 11" fill-rule="evenodd" clip-rule="evenodd" d="M332.82 221.182H215.628C212.282 221.182 209.542 218.576 209.542 215.392C209.542 212.203 212.282 209.597 215.628 209.597H332.82C336.167 209.597 338.907 212.203 338.907 215.392C338.907 218.576 336.167 221.182 332.82 221.182Z" fill="#8D8885"/>
<path id="Fill 13" fill-rule="evenodd" clip-rule="evenodd" d="M332.82 255.941H215.628C212.282 255.941 209.542 253.334 209.542 250.15C209.542 246.962 212.282 244.356 215.628 244.356H332.82C336.167 244.356 338.907 246.962 338.907 250.15C338.907 253.334 336.167 255.941 332.82 255.941Z" fill="#8D8885"/>
<path id="Fill 15" fill-rule="evenodd" clip-rule="evenodd" d="M332.82 290.694H215.628C212.282 290.694 209.542 288.088 209.542 284.904C209.542 281.72 212.282 279.109 215.628 279.109H332.82C336.167 279.109 338.907 281.72 338.907 284.904C338.907 288.088 336.167 290.694 332.82 290.694Z" fill="#8D8885"/>
<path id="Fill 17" fill-rule="evenodd" clip-rule="evenodd" d="M332.82 325.448H215.628C212.282 325.448 209.542 322.842 209.542 319.658C209.542 316.47 212.282 313.863 215.628 313.863H332.82C336.167 313.863 338.907 316.47 338.907 319.658C338.907 322.842 336.167 325.448 332.82 325.448Z" fill="#8D8885"/>
<path id="Fill 19" fill-rule="evenodd" clip-rule="evenodd" d="M276.801 360.202H215.654C212.293 360.202 209.542 357.595 209.542 354.411C209.542 351.223 212.293 348.617 215.654 348.617H276.801C280.162 348.617 282.913 351.223 282.913 354.411C282.913 357.595 280.162 360.202 276.801 360.202Z" fill="#8D8885"/>
</g>
<g id="search_2">
<path id="Fill 21" fill-rule="evenodd" clip-rule="evenodd" d="M400.219 315.284C376.786 338.713 340.507 341.356 314.17 323.267C310.804 320.914 307.6 318.271 304.613 315.284C303.075 313.751 301.625 312.169 300.259 310.503C297.527 307.177 295.134 303.63 293.173 299.965C289.719 293.775 287.37 287.206 286.088 280.417C281.95 259.124 288.137 236.205 304.613 219.737C321.128 203.22 344.05 197.074 365.347 201.171C372.132 202.493 378.707 204.841 384.898 208.256C388.569 210.26 392.068 212.653 395.399 215.384C397.06 216.745 398.642 218.199 400.175 219.737C403.168 222.724 405.851 225.923 408.16 229.293C426.257 255.621 423.609 291.898 400.219 315.284Z" fill="white" fill-opacity="0.1"/>
<path id="Fill 23" fill-rule="evenodd" clip-rule="evenodd" d="M393.662 310.673C369.282 335.057 329.773 335.052 305.389 310.673C281.037 286.32 281.037 246.807 305.421 222.427C329.773 198.075 369.282 198.075 393.635 222.427C418.014 246.807 418.014 286.32 393.662 310.673ZM406.174 209.899C374.88 178.606 324.17 178.606 292.877 209.899C261.588 241.188 261.561 291.93 292.85 323.223C321.331 351.695 365.971 354.262 397.368 330.885C400.435 328.599 403.388 326.036 406.205 323.223C409.018 320.406 411.581 317.453 413.863 314.386C437.24 282.984 434.65 238.375 406.174 209.899Z" fill="#E0E2EE"/>
<path id="Fill 25" fill-rule="evenodd" clip-rule="evenodd" d="M529.327 441.183L528.014 442.497C519.322 451.193 505.089 451.193 496.393 442.497L416.139 362.243L449.074 329.309L529.327 409.562C538.024 418.259 538.024 432.487 529.327 441.183Z" fill="#FFC701"/>
<path id="Fill 27" fill-rule="evenodd" clip-rule="evenodd" d="M415.593 311.932L439.309 335.647L422.472 352.479L398.762 328.764C401.891 326.431 404.9 323.815 407.779 320.945C410.649 318.075 413.265 315.061 415.593 311.932Z" fill="#E0E2EE"/>
<path id="Fill 29" fill-rule="evenodd" clip-rule="evenodd" d="M528.126 408.574L495.401 441.294L489.51 435.399L522.23 402.678L528.126 408.574Z" fill="#FFC701"/>
<path id="Fill 31" fill-rule="evenodd" clip-rule="evenodd" d="M450.893 330.442L417.272 364.064L412.277 359.069L445.898 325.447L450.893 330.442Z" fill="#FFC701"/>
<path id="Fill 33" fill-rule="evenodd" clip-rule="evenodd" d="M377.523 214.036L295.07 296.484C291.965 290.919 289.854 285.013 288.705 278.909L359.947 207.667C366.047 208.859 371.957 210.966 377.523 214.036Z" fill="white" fill-opacity="0.5"/>
<path id="Fill 35" fill-rule="evenodd" clip-rule="evenodd" d="M404.554 233.633L315.414 317.723C312.221 315.621 309.183 313.256 306.35 310.583C304.891 309.207 303.512 307.795 302.221 306.305L392.447 221.182C394.026 222.404 395.527 223.705 396.981 225.081C399.814 227.755 402.363 230.617 404.554 233.633Z" fill="white" fill-opacity="0.5"/>
</g>
</g>
</g>
</svg>
