<svg width="178" height="34" viewBox="0 0 178 34" fill="none" xmlns="http://www.w3.org/2000/svg">
<rect width="20" height="29" rx="10" fill="#FFC701"/>
<path d="M27.016 25.192C26.632 25.192 26.32 25.104 26.08 24.928C25.856 24.752 25.72 24.52 25.672 24.232C25.624 23.928 25.68 23.592 25.84 23.224L32.176 9.184C32.384 8.72 32.632 8.392 32.92 8.2C33.224 7.992 33.568 7.888 33.952 7.888C34.32 7.888 34.648 7.992 34.936 8.2C35.24 8.392 35.496 8.72 35.704 9.184L42.064 23.224C42.24 23.592 42.304 23.928 42.256 24.232C42.208 24.536 42.072 24.776 41.848 24.952C41.624 25.112 41.328 25.192 40.96 25.192C40.512 25.192 40.16 25.088 39.904 24.88C39.664 24.656 39.448 24.32 39.256 23.872L37.696 20.248L38.992 21.088H28.864L30.16 20.248L28.624 23.872C28.416 24.336 28.2 24.672 27.976 24.88C27.752 25.088 27.432 25.192 27.016 25.192ZM33.904 11.416L30.544 19.408L29.92 18.64H37.936L37.336 19.408L33.952 11.416H33.904ZM46.489 25.192C46.009 25.192 45.633 25.064 45.361 24.808C45.105 24.536 44.977 24.152 44.977 23.656V15.52H43.873C43.489 15.52 43.193 15.424 42.985 15.232C42.777 15.024 42.673 14.744 42.673 14.392C42.673 14.024 42.777 13.744 42.985 13.552C43.193 13.36 43.489 13.264 43.873 13.264H45.841L44.977 14.056V13.24C44.977 11.592 45.393 10.36 46.225 9.544C47.057 8.712 48.257 8.224 49.825 8.08L50.641 8.008C50.961 7.976 51.217 8.032 51.409 8.176C51.601 8.304 51.729 8.48 51.793 8.704C51.857 8.912 51.865 9.128 51.817 9.352C51.769 9.576 51.665 9.776 51.505 9.952C51.361 10.112 51.169 10.2 50.929 10.216L50.593 10.24C49.681 10.304 49.017 10.536 48.601 10.936C48.185 11.336 47.977 11.944 47.977 12.76V13.648L47.593 13.264H50.017C50.401 13.264 50.697 13.36 50.905 13.552C51.113 13.744 51.217 14.024 51.217 14.392C51.217 14.744 51.113 15.024 50.905 15.232C50.697 15.424 50.401 15.52 50.017 15.52H47.977V23.656C47.977 24.68 47.481 25.192 46.489 25.192ZM54.6921 25.192C54.2121 25.192 53.8361 25.064 53.5641 24.808C53.3081 24.536 53.1801 24.152 53.1801 23.656V15.52H52.0761C51.6921 15.52 51.3961 15.424 51.1881 15.232C50.9801 15.024 50.8761 14.744 50.8761 14.392C50.8761 14.024 50.9801 13.744 51.1881 13.552C51.3961 13.36 51.6921 13.264 52.0761 13.264H54.0441L53.1801 14.056V13.24C53.1801 11.624 53.5881 10.4 54.4041 9.568C55.2201 8.736 56.4041 8.24 57.9561 8.08L58.6761 8.008C59.0441 7.976 59.3321 8.024 59.5401 8.152C59.7641 8.28 59.9081 8.456 59.9721 8.68C60.0521 8.888 60.0681 9.112 60.0201 9.352C59.9721 9.576 59.8761 9.776 59.7321 9.952C59.5881 10.112 59.4041 10.2 59.1801 10.216L58.6041 10.264C57.7561 10.328 57.1401 10.56 56.7561 10.96C56.3721 11.36 56.1801 11.96 56.1801 12.76V13.648L55.7961 13.264H62.4441C62.9241 13.264 63.2921 13.408 63.5481 13.696C63.8041 13.968 63.9321 14.36 63.9321 14.872V23.536C63.9321 24.048 63.8041 24.448 63.5481 24.736C63.3081 25.024 62.9401 25.168 62.4441 25.168C61.9641 25.168 61.5881 25.024 61.3161 24.736C61.0601 24.448 60.9321 24.048 60.9321 23.536V15.52H56.1801V23.656C56.1801 24.68 55.6841 25.192 54.6921 25.192ZM62.4921 10.864C61.9481 10.864 61.5241 10.728 61.2201 10.456C60.9321 10.168 60.7881 9.776 60.7881 9.28C60.7881 8.768 60.9321 8.376 61.2201 8.104C61.5241 7.832 61.9481 7.696 62.4921 7.696C63.0521 7.696 63.4761 7.832 63.7641 8.104C64.0681 8.376 64.2201 8.768 64.2201 9.28C64.2201 9.776 64.0681 10.168 63.7641 10.456C63.4761 10.728 63.0521 10.864 62.4921 10.864ZM71.068 25.24C69.74 25.24 68.74 24.864 68.068 24.112C67.396 23.344 67.06 22.224 67.06 20.752V9.4C67.06 8.904 67.188 8.528 67.444 8.272C67.7 8.016 68.068 7.888 68.548 7.888C69.028 7.888 69.396 8.016 69.652 8.272C69.924 8.528 70.06 8.904 70.06 9.4V20.608C70.06 21.344 70.212 21.888 70.516 22.24C70.836 22.592 71.284 22.768 71.86 22.768C71.988 22.768 72.108 22.768 72.22 22.768C72.332 22.752 72.444 22.736 72.556 22.72C72.78 22.688 72.932 22.752 73.012 22.912C73.092 23.056 73.132 23.36 73.132 23.824C73.132 24.224 73.052 24.536 72.892 24.76C72.732 24.984 72.468 25.12 72.1 25.168C71.94 25.184 71.772 25.2 71.596 25.216C71.42 25.232 71.244 25.24 71.068 25.24ZM76.2121 25.168C75.7321 25.168 75.3641 25.024 75.1081 24.736C74.8521 24.448 74.7241 24.048 74.7241 23.536V14.728C74.7241 14.2 74.8521 13.8 75.1081 13.528C75.3641 13.24 75.7321 13.096 76.2121 13.096C76.6921 13.096 77.0601 13.24 77.3161 13.528C77.5881 13.8 77.7241 14.2 77.7241 14.728V23.536C77.7241 24.048 77.5961 24.448 77.3401 24.736C77.0841 25.024 76.7081 25.168 76.2121 25.168ZM76.2121 10.864C75.6521 10.864 75.2121 10.728 74.8921 10.456C74.5881 10.168 74.4361 9.776 74.4361 9.28C74.4361 8.768 74.5881 8.376 74.8921 8.104C75.2121 7.832 75.6521 7.696 76.2121 7.696C76.7881 7.696 77.2281 7.832 77.5321 8.104C77.8361 8.376 77.9881 8.768 77.9881 9.28C77.9881 9.776 77.8361 10.168 77.5321 10.456C77.2281 10.728 76.7881 10.864 76.2121 10.864ZM84.7053 25.24C83.8573 25.24 83.0973 25.08 82.4253 24.76C81.7693 24.424 81.2493 23.976 80.8652 23.416C80.4973 22.856 80.3133 22.224 80.3133 21.52C80.3133 20.656 80.5373 19.976 80.9853 19.48C81.4333 18.968 82.1613 18.6 83.1693 18.376C84.1773 18.152 85.5293 18.04 87.2253 18.04H88.4253V19.768H87.2493C86.2573 19.768 85.4653 19.816 84.8733 19.912C84.2813 20.008 83.8573 20.176 83.6013 20.416C83.3613 20.64 83.2413 20.96 83.2413 21.376C83.2413 21.904 83.4253 22.336 83.7933 22.672C84.1613 23.008 84.6733 23.176 85.3293 23.176C85.8573 23.176 86.3213 23.056 86.7213 22.816C87.1373 22.56 87.4653 22.216 87.7053 21.784C87.9453 21.352 88.0653 20.856 88.0653 20.296V17.536C88.0653 16.736 87.8893 16.16 87.5373 15.808C87.1853 15.456 86.5933 15.28 85.7613 15.28C85.2973 15.28 84.7933 15.336 84.2493 15.448C83.7213 15.56 83.1613 15.752 82.5693 16.024C82.2653 16.168 81.9933 16.208 81.7533 16.144C81.5293 16.08 81.3533 15.952 81.2253 15.76C81.0973 15.552 81.0333 15.328 81.0333 15.088C81.0333 14.848 81.0973 14.616 81.2253 14.392C81.3533 14.152 81.5693 13.976 81.8733 13.864C82.6093 13.56 83.3133 13.344 83.9853 13.216C84.6733 13.088 85.2973 13.024 85.8573 13.024C87.0093 13.024 87.9533 13.2 88.6893 13.552C89.4413 13.904 90.0013 14.44 90.3693 15.16C90.7373 15.864 90.9213 16.776 90.9213 17.896V23.656C90.9213 24.152 90.8013 24.536 90.5613 24.808C90.3213 25.064 89.9773 25.192 89.5293 25.192C89.0813 25.192 88.7293 25.064 88.4733 24.808C88.2333 24.536 88.1133 24.152 88.1133 23.656V22.504H88.3053C88.1933 23.064 87.9693 23.552 87.6333 23.968C87.3133 24.368 86.9053 24.68 86.4093 24.904C85.9133 25.128 85.3453 25.24 84.7053 25.24ZM99.3423 25.24C98.3023 25.24 97.4303 25.064 96.7263 24.712C96.0383 24.36 95.5263 23.848 95.1903 23.176C94.8543 22.488 94.6863 21.64 94.6863 20.632V15.52H93.4383C93.0543 15.52 92.7583 15.424 92.5503 15.232C92.3422 15.024 92.2382 14.744 92.2382 14.392C92.2382 14.024 92.3422 13.744 92.5503 13.552C92.7583 13.36 93.0543 13.264 93.4383 13.264H94.6863V11.08C94.6863 10.584 94.8143 10.208 95.0703 9.952C95.3423 9.696 95.7183 9.568 96.1983 9.568C96.6783 9.568 97.0463 9.696 97.3023 9.952C97.5583 10.208 97.6863 10.584 97.6863 11.08V13.264H100.23C100.614 13.264 100.91 13.36 101.118 13.552C101.326 13.744 101.43 14.024 101.43 14.392C101.43 14.744 101.326 15.024 101.118 15.232C100.91 15.424 100.614 15.52 100.23 15.52H97.6863V20.464C97.6863 21.232 97.8543 21.808 98.1903 22.192C98.5263 22.576 99.0703 22.768 99.8223 22.768C100.094 22.768 100.334 22.744 100.542 22.696C100.75 22.648 100.934 22.616 101.094 22.6C101.286 22.584 101.446 22.648 101.574 22.792C101.702 22.92 101.766 23.192 101.766 23.608C101.766 23.928 101.71 24.216 101.598 24.472C101.502 24.712 101.318 24.88 101.046 24.976C100.838 25.04 100.566 25.096 100.23 25.144C99.8943 25.208 99.5983 25.24 99.3423 25.24ZM108.844 25.24C107.516 25.24 106.372 24.992 105.412 24.496C104.452 24 103.708 23.296 103.18 22.384C102.668 21.472 102.412 20.392 102.412 19.144C102.412 17.928 102.66 16.864 103.156 15.952C103.668 15.04 104.364 14.328 105.244 13.816C106.14 13.288 107.156 13.024 108.292 13.024C109.124 13.024 109.868 13.16 110.524 13.432C111.196 13.704 111.764 14.096 112.228 14.608C112.708 15.12 113.068 15.744 113.308 16.48C113.564 17.2 113.692 18.016 113.692 18.928C113.692 19.216 113.588 19.44 113.38 19.6C113.188 19.744 112.908 19.816 112.54 19.816H104.836V18.088H111.58L111.196 18.448C111.196 17.712 111.084 17.096 110.86 16.6C110.652 16.104 110.34 15.728 109.924 15.472C109.524 15.2 109.02 15.064 108.412 15.064C107.74 15.064 107.164 15.224 106.684 15.544C106.22 15.848 105.86 16.288 105.604 16.864C105.364 17.424 105.244 18.096 105.244 18.88V19.048C105.244 20.36 105.548 21.344 106.156 22C106.78 22.64 107.692 22.96 108.892 22.96C109.308 22.96 109.772 22.912 110.284 22.816C110.812 22.704 111.308 22.52 111.772 22.264C112.108 22.072 112.404 21.992 112.66 22.024C112.916 22.04 113.116 22.128 113.26 22.288C113.42 22.448 113.516 22.648 113.548 22.888C113.58 23.112 113.532 23.344 113.404 23.584C113.292 23.824 113.092 24.032 112.804 24.208C112.244 24.56 111.596 24.824 110.86 25C110.14 25.16 109.468 25.24 108.844 25.24ZM124.455 25.192C123.959 25.192 123.567 25.056 123.279 24.784C123.007 24.496 122.871 24.088 122.871 23.56V9.712C122.871 9.184 123.007 8.784 123.279 8.512C123.567 8.224 123.975 8.08 124.503 8.08H132.879C133.295 8.08 133.607 8.184 133.815 8.392C134.023 8.6 134.127 8.896 134.127 9.28C134.127 9.68 134.023 9.992 133.815 10.216C133.607 10.424 133.295 10.528 132.879 10.528H125.943V15.304H132.375C132.775 15.304 133.079 15.408 133.287 15.616C133.511 15.824 133.623 16.12 133.623 16.504C133.623 16.904 133.511 17.216 133.287 17.44C133.079 17.648 132.775 17.752 132.375 17.752H125.943V23.56C125.943 24.648 125.447 25.192 124.455 25.192ZM139.455 25.24C138.607 25.24 137.847 25.08 137.175 24.76C136.519 24.424 135.999 23.976 135.615 23.416C135.247 22.856 135.063 22.224 135.063 21.52C135.063 20.656 135.287 19.976 135.735 19.48C136.183 18.968 136.911 18.6 137.919 18.376C138.927 18.152 140.279 18.04 141.975 18.04H143.175V19.768H141.999C141.007 19.768 140.215 19.816 139.623 19.912C139.031 20.008 138.607 20.176 138.351 20.416C138.111 20.64 137.991 20.96 137.991 21.376C137.991 21.904 138.175 22.336 138.543 22.672C138.911 23.008 139.423 23.176 140.079 23.176C140.607 23.176 141.071 23.056 141.471 22.816C141.887 22.56 142.215 22.216 142.455 21.784C142.695 21.352 142.815 20.856 142.815 20.296V17.536C142.815 16.736 142.639 16.16 142.287 15.808C141.935 15.456 141.343 15.28 140.511 15.28C140.047 15.28 139.543 15.336 138.999 15.448C138.471 15.56 137.911 15.752 137.319 16.024C137.015 16.168 136.743 16.208 136.503 16.144C136.279 16.08 136.103 15.952 135.975 15.76C135.847 15.552 135.783 15.328 135.783 15.088C135.783 14.848 135.847 14.616 135.975 14.392C136.103 14.152 136.319 13.976 136.623 13.864C137.359 13.56 138.063 13.344 138.735 13.216C139.423 13.088 140.047 13.024 140.607 13.024C141.759 13.024 142.703 13.2 143.439 13.552C144.191 13.904 144.751 14.44 145.119 15.16C145.487 15.864 145.671 16.776 145.671 17.896V23.656C145.671 24.152 145.551 24.536 145.311 24.808C145.071 25.064 144.727 25.192 144.279 25.192C143.831 25.192 143.479 25.064 143.223 24.808C142.983 24.536 142.863 24.152 142.863 23.656V22.504H143.055C142.943 23.064 142.719 23.552 142.383 23.968C142.063 24.368 141.655 24.68 141.159 24.904C140.663 25.128 140.095 25.24 139.455 25.24ZM150.252 25.192C149.756 25.192 149.372 25.064 149.1 24.808C148.844 24.536 148.716 24.152 148.716 23.656V14.584C148.716 14.088 148.844 13.712 149.1 13.456C149.356 13.2 149.716 13.072 150.18 13.072C150.644 13.072 151.004 13.2 151.26 13.456C151.516 13.712 151.644 14.088 151.644 14.584V16.096H151.404C151.628 15.136 152.068 14.408 152.724 13.912C153.38 13.416 154.252 13.12 155.34 13.024C155.676 12.992 155.94 13.08 156.132 13.288C156.34 13.48 156.46 13.784 156.492 14.2C156.524 14.6 156.428 14.928 156.204 15.184C155.996 15.424 155.676 15.568 155.244 15.616L154.716 15.664C153.74 15.76 153.004 16.064 152.508 16.576C152.012 17.072 151.764 17.776 151.764 18.688V23.656C151.764 24.152 151.636 24.536 151.38 24.808C151.124 25.064 150.748 25.192 150.252 25.192ZM159.651 25.192C159.171 25.192 158.803 25.064 158.547 24.808C158.291 24.536 158.163 24.152 158.163 23.656V14.584C158.163 14.088 158.291 13.712 158.547 13.456C158.803 13.2 159.163 13.072 159.627 13.072C160.091 13.072 160.451 13.2 160.707 13.456C160.963 13.712 161.091 14.088 161.091 14.584V16.336L160.827 15.616C161.147 14.816 161.643 14.184 162.315 13.72C162.987 13.256 163.787 13.024 164.715 13.024C165.659 13.024 166.435 13.248 167.043 13.696C167.651 14.144 168.075 14.832 168.315 15.76H167.979C168.299 14.912 168.827 14.248 169.563 13.768C170.299 13.272 171.147 13.024 172.107 13.024C173.003 13.024 173.739 13.2 174.315 13.552C174.907 13.904 175.347 14.44 175.635 15.16C175.923 15.864 176.067 16.76 176.067 17.848V23.656C176.067 24.152 175.931 24.536 175.659 24.808C175.403 25.064 175.035 25.192 174.555 25.192C174.075 25.192 173.707 25.064 173.451 24.808C173.195 24.536 173.067 24.152 173.067 23.656V17.968C173.067 17.072 172.915 16.416 172.611 16C172.323 15.584 171.827 15.376 171.123 15.376C170.339 15.376 169.723 15.656 169.275 16.216C168.827 16.76 168.603 17.52 168.603 18.496V23.656C168.603 24.152 168.475 24.536 168.219 24.808C167.963 25.064 167.595 25.192 167.115 25.192C166.635 25.192 166.259 25.064 165.987 24.808C165.731 24.536 165.603 24.152 165.603 23.656V17.968C165.603 17.072 165.451 16.416 165.147 16C164.859 15.584 164.371 15.376 163.683 15.376C162.899 15.376 162.283 15.656 161.835 16.216C161.387 16.76 161.163 17.52 161.163 18.496V23.656C161.163 24.68 160.659 25.192 159.651 25.192Z" fill="#FFFCF2"/>
</svg>
