<svg width="16" height="16" viewBox="0 0 16 16" fill="none" xmlns="http://www.w3.org/2000/svg">
<path fill-rule="evenodd" clip-rule="evenodd" d="M2.98665 1.06667H2.93332C2.68905 1.06667 2.47892 1.06667 2.29332 1.1104C2.006 1.17905 1.74329 1.32592 1.53431 1.53471C1.32533 1.7435 1.17823 2.00607 1.10932 2.29333C1.06665 2.47893 1.06665 2.688 1.06665 2.93333V5.6C1.06665 5.84427 1.06665 6.0544 1.11038 6.24C1.17904 6.52732 1.3259 6.79003 1.53469 6.99901C1.74348 7.20799 2.00606 7.35508 2.29332 7.424C2.47892 7.46667 2.68798 7.46667 2.93332 7.46667H5.59998C5.84425 7.46667 6.05438 7.46667 6.23998 7.42293C6.52731 7.35428 6.79001 7.20742 6.99899 6.99862C7.20797 6.78983 7.35507 6.52726 7.42398 6.24C7.46665 6.0544 7.46665 5.84533 7.46665 5.6V2.93333C7.46665 2.68907 7.46665 2.47893 7.42292 2.29333C7.35426 2.00601 7.2074 1.74331 6.99861 1.53432C6.78982 1.32534 6.52724 1.17825 6.23998 1.10933C6.05438 1.06667 5.84532 1.06667 5.59998 1.06667H5.54665H2.98665ZM2.54185 2.14827C2.58772 2.1376 2.65918 2.13333 2.98665 2.13333H5.54665C5.87518 2.13333 5.94558 2.13653 5.99145 2.14827C6.08727 2.17118 6.17487 2.22019 6.24453 2.28985C6.3142 2.35951 6.3632 2.44711 6.38612 2.54293C6.39678 2.58773 6.39998 2.65813 6.39998 2.98667V5.54667C6.39998 5.8752 6.39678 5.9456 6.38505 5.99147C6.36214 6.08728 6.31313 6.17488 6.24347 6.24455C6.1738 6.31421 6.0862 6.36322 5.99038 6.38613C5.94665 6.39573 5.87625 6.4 5.54665 6.4H2.98665C2.65812 6.4 2.58772 6.3968 2.54185 6.38507C2.44603 6.36215 2.35843 6.31315 2.28877 6.24348C2.2191 6.17382 2.1701 6.08622 2.14718 5.9904C2.13758 5.94667 2.13332 5.87627 2.13332 5.54667V2.98667C2.13332 2.65813 2.13652 2.58773 2.14825 2.54187C2.17116 2.44605 2.22017 2.35845 2.28983 2.28878C2.3595 2.21912 2.4471 2.17011 2.54292 2.1472M10.4533 1.06667H10.4C10.1557 1.06667 9.94558 1.06667 9.75998 1.1104C9.47266 1.17905 9.20996 1.32592 9.00098 1.53471C8.792 1.7435 8.6449 2.00607 8.57598 2.29333C8.53332 2.47893 8.53332 2.688 8.53332 2.93333V5.6C8.53332 5.84427 8.53332 6.0544 8.57705 6.24C8.64571 6.52732 8.79257 6.79003 9.00136 6.99901C9.21015 7.20799 9.47272 7.35508 9.75998 7.424C9.94558 7.46667 10.1547 7.46667 10.4 7.46667H13.0667C13.3109 7.46667 13.5211 7.46667 13.7067 7.42293C13.994 7.35428 14.2567 7.20742 14.4657 6.99862C14.6746 6.78983 14.8217 6.52726 14.8907 6.24C14.9333 6.0544 14.9333 5.84533 14.9333 5.6V2.93333C14.9333 2.68907 14.9333 2.47893 14.8896 2.29333C14.8209 2.00601 14.6741 1.74331 14.4653 1.53432C14.2565 1.32534 13.9939 1.17825 13.7067 1.10933C13.5211 1.06667 13.312 1.06667 13.0667 1.06667H13.0133H10.4533ZM10.0085 2.14827C10.0544 2.1376 10.1259 2.13333 10.4533 2.13333H13.0133C13.3419 2.13333 13.4123 2.13653 13.4581 2.14827C13.5539 2.17118 13.6415 2.22019 13.7112 2.28985C13.7809 2.35951 13.8299 2.44711 13.8528 2.54293C13.8635 2.58773 13.8667 2.65813 13.8667 2.98667V5.54667C13.8667 5.8752 13.8624 5.9456 13.8517 5.99147C13.8288 6.08728 13.7798 6.17488 13.7101 6.24455C13.6405 6.31421 13.5529 6.36322 13.4571 6.38613C13.4123 6.3968 13.3419 6.4 13.0133 6.4H10.4533C10.1248 6.4 10.0544 6.3968 10.0085 6.38507C9.9127 6.36215 9.8251 6.31315 9.75544 6.24348C9.68577 6.17382 9.63676 6.08622 9.61385 5.9904C9.60425 5.94667 9.59998 5.87627 9.59998 5.54667V2.98667C9.59998 2.65813 9.60318 2.58773 9.61492 2.54187C9.63783 2.44605 9.68684 2.35845 9.7565 2.28878C9.82617 2.21912 9.91376 2.17011 10.0096 2.1472M2.93332 8.53333H5.59998C5.84425 8.53333 6.05438 8.53333 6.23998 8.57707C6.52731 8.64572 6.79001 8.79258 6.99899 9.00137C7.20797 9.21017 7.35507 9.47274 7.42398 9.76C7.46665 9.9456 7.46665 10.1547 7.46665 10.4V13.0667C7.46665 13.3109 7.46665 13.5211 7.42292 13.7067C7.35426 13.994 7.2074 14.2567 6.99861 14.4657C6.78982 14.6747 6.52724 14.8218 6.23998 14.8907C6.05438 14.9333 5.84532 14.9333 5.59998 14.9333H2.93332C2.68905 14.9333 2.47892 14.9333 2.29332 14.8896C2.006 14.8209 1.74329 14.6741 1.53431 14.4653C1.32533 14.2565 1.17823 13.9939 1.10932 13.7067C1.06665 13.5211 1.06665 13.312 1.06665 13.0667V10.4C1.06665 10.1557 1.06665 9.9456 1.11038 9.76C1.17904 9.47268 1.3259 9.20997 1.53469 9.00099C1.74348 8.79201 2.00606 8.64491 2.29332 8.576C2.47892 8.53333 2.68798 8.53333 2.93332 8.53333ZM2.98665 9.6C2.65812 9.6 2.58772 9.6032 2.54185 9.61493C2.44603 9.63785 2.35843 9.68685 2.28877 9.75652C2.2191 9.82618 2.1701 9.91378 2.14718 10.0096C2.13758 10.0533 2.13332 10.1237 2.13332 10.4533V13.0133C2.13332 13.3419 2.13652 13.4123 2.14825 13.4581C2.17116 13.554 2.22017 13.6416 2.28983 13.7112C2.3595 13.7809 2.4471 13.8299 2.54292 13.8528C2.58772 13.8635 2.65812 13.8667 2.98665 13.8667H5.54665C5.87518 13.8667 5.94558 13.8624 5.99145 13.8517C6.08727 13.8288 6.17487 13.7798 6.24453 13.7101C6.3142 13.6405 6.3632 13.5529 6.38612 13.4571C6.39678 13.4123 6.39998 13.3419 6.39998 13.0133V10.4533C6.39998 10.1248 6.39678 10.0544 6.38505 10.0085C6.36214 9.91271 6.31313 9.82512 6.24347 9.75545C6.1738 9.68579 6.0862 9.63678 5.99038 9.61387C5.94665 9.60427 5.87625 9.6 5.54665 9.6H2.98665ZM10.4533 8.53333H10.4C10.1557 8.53333 9.94558 8.53333 9.75998 8.57707C9.47266 8.64572 9.20996 8.79258 9.00098 9.00137C8.792 9.21017 8.6449 9.47274 8.57598 9.76C8.53332 9.9456 8.53332 10.1547 8.53332 10.4V13.0667C8.53332 13.3109 8.53332 13.5211 8.57705 13.7067C8.64571 13.994 8.79257 14.2567 9.00136 14.4657C9.21015 14.6747 9.47272 14.8218 9.75998 14.8907C9.94558 14.9344 10.1557 14.9344 10.4 14.9344H13.0667C13.3109 14.9344 13.5211 14.9344 13.7067 14.8907C13.9938 14.8218 14.2563 14.6749 14.465 14.4661C14.6738 14.2573 14.8208 13.9949 14.8896 13.7077C14.9333 13.5221 14.9333 13.312 14.9333 13.0677V10.4C14.9333 10.1557 14.9333 9.9456 14.8896 9.76C14.8209 9.47268 14.6741 9.20997 14.4653 9.00099C14.2565 8.79201 13.9939 8.64491 13.7067 8.576C13.5211 8.53333 13.312 8.53333 13.0667 8.53333H13.0133H10.4533ZM10.0085 9.61493C10.0544 9.60427 10.1259 9.6 10.4533 9.6H13.0133C13.3419 9.6 13.4123 9.6032 13.4581 9.61493C13.5539 9.63785 13.6415 9.68685 13.7112 9.75652C13.7809 9.82618 13.8299 9.91378 13.8528 10.0096C13.8635 10.0544 13.8667 10.1248 13.8667 10.4533V13.0133C13.8667 13.3419 13.8624 13.4123 13.8517 13.4581C13.8288 13.554 13.7798 13.6416 13.7101 13.7112C13.6405 13.7809 13.5529 13.8299 13.4571 13.8528C13.4123 13.8635 13.3419 13.8667 13.0133 13.8667H10.4533C10.1248 13.8667 10.0544 13.8624 10.0085 13.8517C9.9127 13.8288 9.8251 13.7798 9.75544 13.7101C9.68577 13.6405 9.63676 13.5529 9.61385 13.4571C9.60425 13.4133 9.59998 13.3429 9.59998 13.0133V10.4533C9.59998 10.1248 9.60318 10.0544 9.61492 10.0085C9.63783 9.91271 9.68684 9.82512 9.7565 9.75545C9.82617 9.68579 9.91376 9.63678 10.0096 9.61387" fill="#8D8885"/>
</svg>
