<svg width="21" height="20" viewBox="0 0 21 20" fill="none" xmlns="http://www.w3.org/2000/svg">
<path d="M10.2334 12.0906H10.2771C11.2146 12.1156 11.9646 12.8781 11.9646 13.8156C11.9646 14.6156 11.4209 15.2844 10.6834 15.4844V16.1844C10.6834 16.4344 10.4834 16.6344 10.2334 16.6344C9.98336 16.6344 9.78336 16.4344 9.78336 16.1844V15.4844C9.41612 15.3856 9.09163 15.1687 8.86004 14.867C8.62845 14.5654 8.50266 14.1959 8.50211 13.8156C8.50211 13.5656 8.70211 13.3656 8.95211 13.3656C9.20211 13.3656 9.40211 13.5656 9.40211 13.8156C9.40211 14.2781 9.77086 14.6469 10.2271 14.6469C10.6834 14.6469 11.0584 14.2719 11.0584 13.8156C11.0584 13.3594 10.6834 12.9844 10.2271 12.9844H10.1834C9.73374 12.9722 9.3066 12.7851 8.99267 12.463C8.67874 12.1409 8.50275 11.7091 8.50211 11.2594C8.50211 10.4594 9.04586 9.79061 9.78336 9.59061V8.89061C9.78336 8.64061 9.98336 8.44061 10.2334 8.44061C10.4834 8.44061 10.6834 8.64061 10.6834 8.89061V9.59061C11.4209 9.79061 11.9646 10.4594 11.9646 11.2594C11.9646 11.5094 11.7646 11.7094 11.5146 11.7094C11.2646 11.7094 11.0646 11.5094 11.0646 11.2594C11.0646 10.8031 10.6896 10.4281 10.2334 10.4281C9.77711 10.4281 9.40211 10.8031 9.40211 11.2594C9.40211 11.7156 9.77711 12.0906 10.2334 12.0906Z" fill="#8D8885"/>
<path d="M6.91584 3.18749L8.65709 5.22499L8.46897 5.43499C4.88522 6.23874 2.20834 9.43937 2.20834 13.2656C2.20834 16.6294 4.93834 19.3594 8.30209 19.3594H12.1583C15.5221 19.3594 18.2521 16.63 18.2521 13.2662C18.2583 9.43937 15.5815 6.23874 11.9977 5.43499C12.0123 5.30292 11.9884 5.16945 11.929 5.05062L13.4102 3.35499L13.5058 3.20749C13.6175 2.96395 13.6461 2.69047 13.5871 2.4291C13.5282 2.16774 13.3851 1.93298 13.1797 1.76091C12.9743 1.58885 12.7181 1.48902 12.4505 1.47677C12.1828 1.46452 11.9186 1.54053 11.6983 1.69312L11.1715 1.06812C11.0533 0.935857 10.9085 0.829984 10.7467 0.757399C10.5849 0.684814 10.4095 0.647147 10.2322 0.646852C10.0548 0.646557 9.87935 0.683642 9.71726 0.755688C9.55518 0.827734 9.4101 0.933126 9.29147 1.06499L8.73959 1.68124C8.51994 1.52548 8.25508 1.44644 7.98598 1.45634C7.71689 1.46623 7.45855 1.56452 7.25093 1.736C7.04331 1.90747 6.89797 2.14258 6.8374 2.40496C6.77683 2.66734 6.8044 2.94236 6.91584 3.18749ZM9.29022 4.05312L8.23022 2.82812C8.47648 2.94678 8.75513 2.98048 9.02257 2.92393C9.29002 2.86739 9.53118 2.7238 9.70834 2.51562L10.2083 1.86687L10.7633 2.52437C10.9364 2.72561 11.1698 2.86554 11.4289 2.92332C11.6879 2.9811 11.9587 2.95362 12.2008 2.84499L11.1458 4.05312H9.29022ZM3.45834 13.2656C3.45834 9.52312 6.49084 6.49062 10.2333 6.49062C13.9758 6.49062 17.0083 9.52312 17.0021 13.2644V13.2656C17.0016 14.5501 16.4911 15.7818 15.5828 16.6901C14.6746 17.5984 13.4428 18.1089 12.1583 18.1094H8.30209C7.0176 18.1089 5.78587 17.5984 4.87759 16.6901C3.96932 15.7818 3.45884 14.5501 3.45834 13.2656Z" fill="#8D8885"/>
</svg>
