<svg width="25" height="24" viewBox="0 0 25 24" fill="none" xmlns="http://www.w3.org/2000/svg">
<path fill-rule="evenodd" clip-rule="evenodd" d="M11.5833 1.5C8.99748 1.5 6.51753 2.52723 4.68905 4.35571C2.86057 6.18419 1.83334 8.66414 1.83334 11.25C1.83334 13.8359 2.86057 16.3158 4.68905 18.1443C6.51753 19.9728 8.99748 21 11.5833 21C14.1692 21 16.6492 19.9728 18.4776 18.1443C20.3061 16.3158 21.3333 13.8359 21.3333 11.25C21.3333 8.66414 20.3061 6.18419 18.4776 4.35571C16.6492 2.52723 14.1692 1.5 11.5833 1.5ZM11.5833 19.5C9.39531 19.5 7.29689 18.6308 5.74971 17.0836C4.20254 15.5365 3.33334 13.438 3.33334 11.25C3.33334 9.06196 4.20254 6.96354 5.74971 5.41637C7.29689 3.86919 9.39531 3 11.5833 3C13.7714 3 15.8698 3.86919 17.417 5.41637C18.9641 6.96354 19.8333 9.06196 19.8333 11.25C19.8333 13.438 18.9641 15.5365 17.417 17.0836C15.8698 18.6308 13.7714 19.5 11.5833 19.5ZM13.9083 6.87C13.6503 6.59885 13.3387 6.38431 12.9933 6.24C12.5598 6.06643 12.095 5.98471 11.6283 6C11.1755 5.99352 10.7262 6.08032 10.3083 6.255C9.94984 6.405 9.63334 6.636 9.37834 6.93C9.13024 7.20041 8.9367 7.51619 8.80834 7.86C8.68933 8.20941 8.61377 8.57213 8.58334 8.94H10.4283C10.4368 8.70193 10.5127 8.47115 10.647 8.27442C10.7813 8.07769 10.9687 7.92307 11.1873 7.8285C11.332 7.77046 11.4878 7.74535 11.6433 7.755C11.7776 7.73463 11.9141 7.73463 12.0483 7.755C12.1724 7.79996 12.2851 7.87165 12.3783 7.965C12.4826 8.05517 12.5647 8.16808 12.6183 8.295C12.6812 8.43653 12.7119 8.5902 12.7083 8.745C12.7083 9.0045 12.6528 9.2595 12.5433 9.495C12.4344 9.73933 12.2986 9.97076 12.1383 10.185L11.6133 10.815C11.4333 11.01 11.2533 11.22 11.0883 11.43C10.928 11.6388 10.7921 11.8653 10.6833 12.105C10.5802 12.3414 10.529 12.5971 10.5333 12.855V13.845H12.3333V13.11C12.3384 12.89 12.3949 12.6742 12.4983 12.48C12.6211 12.2637 12.7616 12.058 12.9183 11.865L13.4583 11.205C13.6561 10.9789 13.8366 10.7382 13.9983 10.485C14.1706 10.2276 14.3116 9.9507 14.4183 9.66C14.528 9.35184 14.5838 9.0271 14.5833 8.7C14.5855 8.35927 14.5349 8.02025 14.4333 7.695C14.3209 7.38484 14.1417 7.10319 13.9083 6.87ZM10.5333 14.745H12.2883V16.5H10.5333V14.745Z" fill="#8D8885"/>
</svg>
