<svg width="18" height="18" viewBox="0 0 18 18" fill="none" xmlns="http://www.w3.org/2000/svg">
<g clip-path="url(#clip0_246_4705)">
<path d="M9.97016 1.64263e-06C10.2348 1.64263e-06 10.4715 0.164702 10.5606 0.411302L11.196 2.1726C11.4237 2.2293 11.619 2.286 11.7846 2.3454C11.9655 2.4102 12.1986 2.5083 12.4866 2.6424L13.9662 1.8594C14.0869 1.79542 14.2252 1.77232 14.3602 1.79358C14.4952 1.81484 14.6197 1.8793 14.715 1.9773L16.0164 3.3228C16.1892 3.5019 16.2378 3.7638 16.1406 3.9924L15.4467 5.6187C15.5619 5.8302 15.6537 6.0111 15.7239 6.1623C15.7995 6.327 15.8931 6.5538 16.0047 6.8463L17.622 7.5393C17.865 7.6428 18.0153 7.8858 17.9991 8.1459L17.8803 10.0134C17.8721 10.1347 17.8286 10.251 17.755 10.3478C17.6814 10.4446 17.581 10.5176 17.4663 10.5579L15.9345 11.1024C15.8904 11.3139 15.8445 11.4948 15.7959 11.6478C15.7175 11.8841 15.628 12.1166 15.5277 12.3444L16.2972 14.0454C16.3515 14.1649 16.3661 14.2987 16.3389 14.4271C16.3117 14.5555 16.2441 14.6719 16.146 14.7591L14.6826 16.0659C14.5862 16.1516 14.4659 16.2058 14.3379 16.2212C14.2099 16.2367 14.0802 16.2126 13.9662 16.1523L12.4578 15.3531C12.2218 15.4781 11.9783 15.5884 11.7288 15.6834L11.07 15.93L10.485 17.55C10.4416 17.6686 10.3634 17.7714 10.2606 17.8448C10.1578 17.9182 10.0352 17.9588 9.90897 17.9613L8.19896 18C8.06933 18.0034 7.94183 17.9665 7.834 17.8945C7.72618 17.8225 7.64333 17.7188 7.59686 17.5977L6.90746 15.7734C6.67225 15.693 6.43935 15.606 6.20906 15.5124C6.02071 15.4309 5.8352 15.3429 5.65286 15.2487L3.94286 15.9795C3.83019 16.0276 3.70597 16.0419 3.58533 16.0206C3.46469 15.9993 3.35283 15.9435 3.26336 15.8598L1.99796 14.6727C1.90375 14.5847 1.83959 14.4693 1.81456 14.3429C1.78953 14.2164 1.80488 14.0853 1.85846 13.968L2.59376 12.366C2.49597 12.1763 2.40531 11.9829 2.32196 11.7864C2.22468 11.5459 2.13463 11.3025 2.05196 11.0565L0.440965 10.566C0.310015 10.5264 0.195799 10.4447 0.116055 10.3336C0.0363112 10.2224 -0.00449838 10.088 -3.54887e-05 9.9513L0.0629645 8.2224C0.0674488 8.1096 0.102688 8.00017 0.16487 7.90594C0.227052 7.81172 0.313811 7.73628 0.415765 7.6878L2.10596 6.876C2.18426 6.5889 2.25266 6.3657 2.31296 6.2028C2.39787 5.98522 2.49216 5.77142 2.59556 5.562L1.86296 4.014C1.80737 3.89645 1.79048 3.76429 1.81474 3.63653C1.839 3.50877 1.90315 3.392 1.99796 3.303L3.26156 2.1096C3.35014 2.02606 3.46098 1.96989 3.58073 1.94785C3.70048 1.92582 3.82405 1.93886 3.93656 1.9854L5.64476 2.691C5.83376 2.565 6.00476 2.4633 6.15956 2.3814C6.34406 2.2833 6.59067 2.1807 6.90117 2.07L7.49516 0.413102C7.53908 0.291843 7.61935 0.187095 7.72502 0.11316C7.83069 0.0392244 7.9566 -0.000293626 8.08556 1.64263e-06H9.97016ZM9.52917 1.2393H8.52746L7.98296 2.7639C7.95095 2.8528 7.89915 2.93326 7.83149 2.99921C7.76382 3.06516 7.68206 3.11488 7.59236 3.1446C7.19996 3.2751 6.91646 3.3876 6.75086 3.4749C6.57537 3.5676 6.35126 3.7089 6.08487 3.8979C5.99767 3.95909 5.89644 3.99728 5.79056 4.00892C5.68468 4.02057 5.57757 4.00529 5.47916 3.9645L3.83216 3.285L3.19046 3.8916L3.85916 5.3046C3.8992 5.38867 3.91952 5.48077 3.91859 5.57388C3.91765 5.66699 3.89548 5.75866 3.85376 5.8419C3.67376 6.2028 3.55226 6.4692 3.49106 6.633C3.39721 6.90568 3.31613 7.18258 3.24806 7.4628C3.22545 7.55051 3.18393 7.63221 3.1264 7.70217C3.06888 7.77213 2.99675 7.82866 2.91506 7.8678L1.30406 8.6409L1.27166 9.5229L2.72966 9.9657C2.92316 10.0242 3.07616 10.1727 3.14006 10.3635C3.28406 10.7955 3.39926 11.1141 3.48206 11.3139C3.59178 11.5675 3.71311 11.8158 3.84566 12.0582C3.89051 12.1416 3.9154 12.2343 3.91836 12.3289C3.92133 12.4235 3.9023 12.5176 3.86276 12.6036L3.18686 14.0778L3.82676 14.679L5.43056 13.9932C5.51695 13.9563 5.61048 13.9391 5.70435 13.9428C5.79822 13.9465 5.89008 13.9711 5.97327 14.0148C6.30176 14.1876 6.54657 14.3073 6.70136 14.373C6.85887 14.4387 7.16037 14.5485 7.59776 14.6979C7.6846 14.7276 7.76382 14.776 7.82978 14.8398C7.89574 14.9036 7.94682 14.9811 7.97936 15.0669L8.61656 16.7508L9.44996 16.7328L9.98726 15.2442C10.018 15.1593 10.0668 15.082 10.1304 15.0178C10.194 14.9536 10.2707 14.9041 10.3554 14.8725L11.2887 14.5233C11.5245 14.436 11.8107 14.2983 12.1446 14.1093C12.237 14.0574 12.341 14.0295 12.4469 14.0283C12.5529 14.027 12.6575 14.0524 12.7512 14.1021L14.1705 14.8536L14.9688 14.1417L14.2704 12.6C14.2345 12.5209 14.2159 12.435 14.2157 12.3481C14.2156 12.2612 14.2339 12.1753 14.2695 12.096C14.4333 11.7297 14.544 11.4534 14.5998 11.277C14.6547 11.1042 14.7114 10.8549 14.7663 10.5345C14.7851 10.4257 14.8327 10.3238 14.9041 10.2395C14.9754 10.1552 15.068 10.0914 15.1722 10.0548L16.6554 9.5283L16.7202 8.5023L15.2622 7.8777C15.1845 7.84466 15.1144 7.79619 15.0561 7.73523C14.9978 7.67428 14.9525 7.60211 14.9229 7.5231C14.8189 7.23622 14.7054 6.95286 14.5827 6.6735C14.4664 6.43026 14.3403 6.19186 14.2047 5.9589C14.1577 5.8766 14.1304 5.78452 14.1249 5.6899C14.1194 5.59528 14.1359 5.50067 14.1732 5.4135L14.8257 3.8835L14.1381 3.1725L12.7989 3.8817C12.7114 3.92807 12.6143 3.95329 12.5154 3.95532C12.4165 3.95735 12.3184 3.93614 12.2292 3.8934C11.9449 3.75207 11.6542 3.62413 11.358 3.51C11.1054 3.42518 10.8478 3.35605 10.5867 3.303C10.4831 3.28103 10.3867 3.23308 10.3068 3.16365C10.2268 3.09422 10.1658 3.0056 10.1295 2.9061L9.52917 1.2393ZM9.02156 5.0769C11.2131 5.0769 12.9906 6.8346 12.9906 9.0018C12.9906 11.169 11.2131 12.9258 9.02156 12.9258C6.82916 12.9258 5.05256 11.169 5.05256 9.0018C5.05256 6.8346 6.82916 5.0778 9.02156 5.0778M9.02156 6.318C7.52126 6.318 6.30537 7.5195 6.30537 9.0027C6.30537 10.4859 7.52126 11.6883 9.02156 11.6883C10.521 11.6883 11.7369 10.4859 11.7369 9.0027C11.7369 7.5195 10.5219 6.318 9.02156 6.318Z" fill="#C2BDB9"/>
</g>
<defs>
<clipPath id="clip0_246_4705">
<rect width="18" height="18" fill="white"/>
</clipPath>
</defs>
</svg>
