<svg width="18" height="20" viewBox="0 0 18 20" fill="none" xmlns="http://www.w3.org/2000/svg">
<path d="M10.4227 20L10.3555 17.3712H8.68558C6.27138 17.3712 4.22042 16.5273 2.53272 14.8396C0.845011 13.1519 0.000772581 11.1006 5.29044e-07 8.68558C-0.000771523 6.2706 0.843467 4.21965 2.53272 2.53272C4.22196 0.845782 6.27292 0.0015441 8.68558 0C9.89307 0 11.0234 0.226211 12.0764 0.678633C13.1295 1.13028 14.0494 1.74947 14.8361 2.53619C15.6229 3.32291 16.242 4.24242 16.6937 5.29473C17.1453 6.34858 17.3712 7.47887 17.3712 8.68558C17.3712 9.86605 17.1978 10.9998 16.8512 12.0869C16.5045 13.1739 16.0251 14.2011 15.4129 15.1685C14.8006 16.1359 14.0672 17.0276 13.2125 17.8437C12.3578 18.6597 11.4279 19.3781 10.4227 19.9988M11.5808 17.7765C12.9512 16.6184 14.066 15.2627 14.9253 13.7093C15.7846 12.156 16.2139 10.4814 16.2131 8.68558C16.2131 6.58174 15.4843 4.80139 14.0266 3.34453C12.569 1.88767 10.7887 1.15885 8.68558 1.15808C6.58251 1.15731 4.80216 1.88612 3.34453 3.34453C1.88689 4.80293 1.15808 6.58328 1.15808 8.68558C1.15808 10.7879 1.88689 12.5686 3.34453 14.0278C4.80216 15.487 6.58251 16.2154 8.68558 16.2131H11.5808V17.7765ZM8.7238 14.5582C8.96313 14.5582 9.16502 14.476 9.32947 14.3115C9.49392 14.1471 9.57614 13.9452 9.57614 13.7058C9.57614 13.4665 9.49392 13.2646 9.32947 13.1002C9.16502 12.9357 8.96313 12.8531 8.7238 12.8523C8.48446 12.8523 8.28257 12.935 8.11812 13.1002C7.9529 13.2646 7.87029 13.4665 7.87029 13.7058C7.87029 13.9452 7.95252 14.1471 8.11697 14.3115C8.28218 14.476 8.48446 14.5582 8.7238 14.5582ZM8.21772 11.1708H9.24262C9.27195 10.696 9.36306 10.3204 9.51592 10.044C9.66879 9.76838 10.0317 9.34376 10.6045 8.77012C10.938 8.43814 11.2021 8.09882 11.3966 7.75217C11.5904 7.40629 11.6873 7.00946 11.6873 6.56167C11.6873 5.72554 11.399 5.06891 10.8222 4.59178C10.2455 4.11465 9.54796 3.8757 8.72959 3.87493C8.0139 3.87493 7.40784 4.07064 6.91141 4.46207C6.41343 4.8535 6.04864 5.32021 5.81702 5.86219L6.77012 6.23162C6.92608 5.88882 7.15383 5.57653 7.45339 5.29473C7.75372 5.0137 8.17912 4.87319 8.72959 4.87319C9.38429 4.87319 9.86798 5.05115 10.1807 5.40706C10.4933 5.76375 10.6497 6.15287 10.6497 6.57441C10.6497 6.96198 10.5493 7.28971 10.3486 7.55761C10.1486 7.82552 9.89114 8.11697 9.57614 8.43196C9.01949 8.92222 8.65393 9.36228 8.47944 9.75217C8.30496 10.1421 8.21772 10.6149 8.21772 11.1708Z" fill="#C2BDB9"/>
</svg>
