<svg width="21" height="18" viewBox="0 0 21 18" fill="none" xmlns="http://www.w3.org/2000/svg">
<path d="M10.3334 17C14.1994 17 17.3334 13.866 17.3334 10C17.3334 6.13401 14.1994 3 10.3334 3C6.46738 3 3.33337 6.13401 3.33337 10C3.33337 13.866 6.46738 17 10.3334 17Z" stroke="#8D8885" stroke-width="2"/>
<path d="M4.29836 1.13599C3.61996 1.31768 3.00136 1.67478 2.50476 2.17138C2.00815 2.66799 1.65105 3.28659 1.46936 3.96499M16.3684 1.13599C17.0468 1.31768 17.6654 1.67478 18.162 2.17138C18.6586 2.66799 19.0157 3.28659 19.1974 3.96499M10.3334 5.99999V9.74999C10.3334 9.88799 10.4454 9.99999 10.5834 9.99999H13.3334" stroke="#8D8885" stroke-width="2" stroke-linecap="round"/>
</svg>
